<mxfile host="app.diagrams.net" agent="Mozilla/5.0 (Windows NT 10.0; Win64; x64) AppleWebKit/537.36 (KHTML, like Gecko) Chrome/128.0.0.0 Safari/537.36" version="24.7.16" pages="2">
  <diagram name="Page-1" id="Jh913-2ZbScVN-_d3Vea">
    <mxGraphModel dx="2580" dy="2307" grid="1" gridSize="10" guides="1" tooltips="1" connect="1" arrows="1" fold="1" page="1" pageScale="1" pageWidth="827" pageHeight="1169" math="0" shadow="0">
      <root>
        <mxCell id="0" />
        <mxCell id="1" parent="0" />
        <mxCell id="eyucza8DKZPgcl_dBAMr-1" value="admin" style="swimlane;fontStyle=0;childLayout=stackLayout;horizontal=1;startSize=26;fillColor=none;horizontalStack=0;resizeParent=1;resizeParentMax=0;resizeLast=0;collapsible=1;marginBottom=0;whiteSpace=wrap;html=1;" parent="1" vertex="1">
          <mxGeometry x="620" y="-1080" width="180" height="130" as="geometry" />
        </mxCell>
        <mxCell id="h_I5UyKPZcfu8QxgUdIw-24" value="# &lt;font face=&quot;monospace&quot;&gt;id_admin&lt;/font&gt;: int" style="text;strokeColor=none;fillColor=none;align=left;verticalAlign=top;spacingLeft=4;spacingRight=4;overflow=hidden;rotatable=0;points=[[0,0.5],[1,0.5]];portConstraint=eastwest;whiteSpace=wrap;html=1;" vertex="1" parent="eyucza8DKZPgcl_dBAMr-1">
          <mxGeometry y="26" width="180" height="26" as="geometry" />
        </mxCell>
        <mxCell id="eyucza8DKZPgcl_dBAMr-2" value="#&amp;nbsp;&lt;code&gt;nom&lt;/code&gt; : String" style="text;strokeColor=none;fillColor=none;align=left;verticalAlign=top;spacingLeft=4;spacingRight=4;overflow=hidden;rotatable=0;points=[[0,0.5],[1,0.5]];portConstraint=eastwest;whiteSpace=wrap;html=1;" parent="eyucza8DKZPgcl_dBAMr-1" vertex="1">
          <mxGeometry y="52" width="180" height="26" as="geometry" />
        </mxCell>
        <mxCell id="eyucza8DKZPgcl_dBAMr-3" value="#&amp;nbsp;&lt;code&gt;email&lt;/code&gt; : String" style="text;strokeColor=none;fillColor=none;align=left;verticalAlign=top;spacingLeft=4;spacingRight=4;overflow=hidden;rotatable=0;points=[[0,0.5],[1,0.5]];portConstraint=eastwest;whiteSpace=wrap;html=1;" parent="eyucza8DKZPgcl_dBAMr-1" vertex="1">
          <mxGeometry y="78" width="180" height="26" as="geometry" />
        </mxCell>
        <mxCell id="eyucza8DKZPgcl_dBAMr-4" value="#&amp;nbsp;&lt;code&gt;mot_de_passe&lt;/code&gt; : String" style="text;strokeColor=none;fillColor=none;align=left;verticalAlign=top;spacingLeft=4;spacingRight=4;overflow=hidden;rotatable=0;points=[[0,0.5],[1,0.5]];portConstraint=eastwest;whiteSpace=wrap;html=1;" parent="eyucza8DKZPgcl_dBAMr-1" vertex="1">
          <mxGeometry y="104" width="180" height="26" as="geometry" />
        </mxCell>
        <mxCell id="h_I5UyKPZcfu8QxgUdIw-57" value="" style="endArrow=none;html=1;rounded=0;entryX=0;entryY=0.5;entryDx=0;entryDy=0;exitX=0.012;exitY=-0.044;exitDx=0;exitDy=0;exitPerimeter=0;" edge="1" parent="eyucza8DKZPgcl_dBAMr-1" source="h_I5UyKPZcfu8QxgUdIw-24" target="eyucza8DKZPgcl_dBAMr-4">
          <mxGeometry width="50" height="50" relative="1" as="geometry">
            <mxPoint x="-210" y="380" as="sourcePoint" />
            <mxPoint x="-160" y="330" as="targetPoint" />
            <Array as="points">
              <mxPoint x="-40" y="25" />
              <mxPoint x="-40" y="70" />
              <mxPoint x="-40" y="117" />
            </Array>
          </mxGeometry>
        </mxCell>
        <mxCell id="h_I5UyKPZcfu8QxgUdIw-58" value="1" style="edgeLabel;html=1;align=center;verticalAlign=middle;resizable=0;points=[];" vertex="1" connectable="0" parent="h_I5UyKPZcfu8QxgUdIw-57">
          <mxGeometry x="0.8934" y="1" relative="1" as="geometry">
            <mxPoint as="offset" />
          </mxGeometry>
        </mxCell>
        <mxCell id="h_I5UyKPZcfu8QxgUdIw-59" value="*" style="edgeLabel;html=1;align=center;verticalAlign=middle;resizable=0;points=[];" vertex="1" connectable="0" parent="h_I5UyKPZcfu8QxgUdIw-57">
          <mxGeometry x="-0.8594" relative="1" as="geometry">
            <mxPoint as="offset" />
          </mxGeometry>
        </mxCell>
        <mxCell id="h_I5UyKPZcfu8QxgUdIw-1" value="client" style="swimlane;fontStyle=0;childLayout=stackLayout;horizontal=1;startSize=26;fillColor=none;horizontalStack=0;resizeParent=1;resizeParentMax=0;resizeLast=0;collapsible=1;marginBottom=0;whiteSpace=wrap;html=1;" vertex="1" parent="1">
          <mxGeometry x="150" y="-1080" width="180" height="104" as="geometry" />
        </mxCell>
        <mxCell id="h_I5UyKPZcfu8QxgUdIw-2" value="#&amp;nbsp;&lt;code&gt;nom&lt;/code&gt; : String" style="text;strokeColor=none;fillColor=none;align=left;verticalAlign=top;spacingLeft=4;spacingRight=4;overflow=hidden;rotatable=0;points=[[0,0.5],[1,0.5]];portConstraint=eastwest;whiteSpace=wrap;html=1;" vertex="1" parent="h_I5UyKPZcfu8QxgUdIw-1">
          <mxGeometry y="26" width="180" height="26" as="geometry" />
        </mxCell>
        <mxCell id="h_I5UyKPZcfu8QxgUdIw-3" value="#&amp;nbsp;&lt;code&gt;email&lt;/code&gt; : String" style="text;strokeColor=none;fillColor=none;align=left;verticalAlign=top;spacingLeft=4;spacingRight=4;overflow=hidden;rotatable=0;points=[[0,0.5],[1,0.5]];portConstraint=eastwest;whiteSpace=wrap;html=1;" vertex="1" parent="h_I5UyKPZcfu8QxgUdIw-1">
          <mxGeometry y="52" width="180" height="26" as="geometry" />
        </mxCell>
        <mxCell id="h_I5UyKPZcfu8QxgUdIw-4" value="#&amp;nbsp;&lt;code&gt;mot_de_passe&lt;/code&gt; : String" style="text;strokeColor=none;fillColor=none;align=left;verticalAlign=top;spacingLeft=4;spacingRight=4;overflow=hidden;rotatable=0;points=[[0,0.5],[1,0.5]];portConstraint=eastwest;whiteSpace=wrap;html=1;" vertex="1" parent="h_I5UyKPZcfu8QxgUdIw-1">
          <mxGeometry y="78" width="180" height="26" as="geometry" />
        </mxCell>
        <mxCell id="h_I5UyKPZcfu8QxgUdIw-5" value="film" style="swimlane;fontStyle=0;childLayout=stackLayout;horizontal=1;startSize=26;fillColor=none;horizontalStack=0;resizeParent=1;resizeParentMax=0;resizeLast=0;collapsible=1;marginBottom=0;whiteSpace=wrap;html=1;" vertex="1" parent="1">
          <mxGeometry x="620" y="-850" width="180" height="182" as="geometry" />
        </mxCell>
        <mxCell id="h_I5UyKPZcfu8QxgUdIw-25" value="# &lt;font face=&quot;monospace&quot;&gt;id_film&lt;/font&gt;: int" style="text;strokeColor=none;fillColor=none;align=left;verticalAlign=top;spacingLeft=4;spacingRight=4;overflow=hidden;rotatable=0;points=[[0,0.5],[1,0.5]];portConstraint=eastwest;whiteSpace=wrap;html=1;" vertex="1" parent="h_I5UyKPZcfu8QxgUdIw-5">
          <mxGeometry y="26" width="180" height="26" as="geometry" />
        </mxCell>
        <mxCell id="h_I5UyKPZcfu8QxgUdIw-6" value="#&amp;nbsp;&lt;code&gt;titre&lt;/code&gt; : String" style="text;strokeColor=none;fillColor=none;align=left;verticalAlign=top;spacingLeft=4;spacingRight=4;overflow=hidden;rotatable=0;points=[[0,0.5],[1,0.5]];portConstraint=eastwest;whiteSpace=wrap;html=1;" vertex="1" parent="h_I5UyKPZcfu8QxgUdIw-5">
          <mxGeometry y="52" width="180" height="26" as="geometry" />
        </mxCell>
        <mxCell id="h_I5UyKPZcfu8QxgUdIw-7" value="#&amp;nbsp;&lt;code&gt;description&lt;/code&gt; : String" style="text;strokeColor=none;fillColor=none;align=left;verticalAlign=top;spacingLeft=4;spacingRight=4;overflow=hidden;rotatable=0;points=[[0,0.5],[1,0.5]];portConstraint=eastwest;whiteSpace=wrap;html=1;" vertex="1" parent="h_I5UyKPZcfu8QxgUdIw-5">
          <mxGeometry y="78" width="180" height="26" as="geometry" />
        </mxCell>
        <mxCell id="h_I5UyKPZcfu8QxgUdIw-8" value="#&amp;nbsp;&lt;code&gt;genre&lt;/code&gt; : String" style="text;strokeColor=none;fillColor=none;align=left;verticalAlign=top;spacingLeft=4;spacingRight=4;overflow=hidden;rotatable=0;points=[[0,0.5],[1,0.5]];portConstraint=eastwest;whiteSpace=wrap;html=1;" vertex="1" parent="h_I5UyKPZcfu8QxgUdIw-5">
          <mxGeometry y="104" width="180" height="26" as="geometry" />
        </mxCell>
        <mxCell id="h_I5UyKPZcfu8QxgUdIw-16" value="#&amp;nbsp;&lt;code&gt;durée&lt;/code&gt; : int" style="text;strokeColor=none;fillColor=none;align=left;verticalAlign=top;spacingLeft=4;spacingRight=4;overflow=hidden;rotatable=0;points=[[0,0.5],[1,0.5]];portConstraint=eastwest;whiteSpace=wrap;html=1;" vertex="1" parent="h_I5UyKPZcfu8QxgUdIw-5">
          <mxGeometry y="130" width="180" height="26" as="geometry" />
        </mxCell>
        <mxCell id="h_I5UyKPZcfu8QxgUdIw-17" value="#&amp;nbsp;&lt;code&gt;année&lt;/code&gt; : date" style="text;strokeColor=none;fillColor=none;align=left;verticalAlign=top;spacingLeft=4;spacingRight=4;overflow=hidden;rotatable=0;points=[[0,0.5],[1,0.5]];portConstraint=eastwest;whiteSpace=wrap;html=1;" vertex="1" parent="h_I5UyKPZcfu8QxgUdIw-5">
          <mxGeometry y="156" width="180" height="26" as="geometry" />
        </mxCell>
        <mxCell id="h_I5UyKPZcfu8QxgUdIw-18" value="salle" style="swimlane;fontStyle=0;childLayout=stackLayout;horizontal=1;startSize=26;fillColor=none;horizontalStack=0;resizeParent=1;resizeParentMax=0;resizeLast=0;collapsible=1;marginBottom=0;whiteSpace=wrap;html=1;" vertex="1" parent="1">
          <mxGeometry x="620" y="-520" width="180" height="130" as="geometry" />
        </mxCell>
        <mxCell id="h_I5UyKPZcfu8QxgUdIw-19" value="# &lt;font face=&quot;monospace&quot;&gt;id_salle&lt;/font&gt;: int" style="text;strokeColor=none;fillColor=none;align=left;verticalAlign=top;spacingLeft=4;spacingRight=4;overflow=hidden;rotatable=0;points=[[0,0.5],[1,0.5]];portConstraint=eastwest;whiteSpace=wrap;html=1;" vertex="1" parent="h_I5UyKPZcfu8QxgUdIw-18">
          <mxGeometry y="26" width="180" height="26" as="geometry" />
        </mxCell>
        <mxCell id="h_I5UyKPZcfu8QxgUdIw-20" value="#&amp;nbsp;&lt;code&gt;nom&lt;/code&gt; : String" style="text;strokeColor=none;fillColor=none;align=left;verticalAlign=top;spacingLeft=4;spacingRight=4;overflow=hidden;rotatable=0;points=[[0,0.5],[1,0.5]];portConstraint=eastwest;whiteSpace=wrap;html=1;" vertex="1" parent="h_I5UyKPZcfu8QxgUdIw-18">
          <mxGeometry y="52" width="180" height="26" as="geometry" />
        </mxCell>
        <mxCell id="h_I5UyKPZcfu8QxgUdIw-21" value="# &lt;font face=&quot;monospace&quot;&gt;places&lt;/font&gt;: int" style="text;strokeColor=none;fillColor=none;align=left;verticalAlign=top;spacingLeft=4;spacingRight=4;overflow=hidden;rotatable=0;points=[[0,0.5],[1,0.5]];portConstraint=eastwest;whiteSpace=wrap;html=1;" vertex="1" parent="h_I5UyKPZcfu8QxgUdIw-18">
          <mxGeometry y="78" width="180" height="26" as="geometry" />
        </mxCell>
        <mxCell id="h_I5UyKPZcfu8QxgUdIw-22" value="#&amp;nbsp;&lt;code&gt;type&lt;/code&gt; : Enum&amp;nbsp;" style="text;strokeColor=none;fillColor=none;align=left;verticalAlign=top;spacingLeft=4;spacingRight=4;overflow=hidden;rotatable=0;points=[[0,0.5],[1,0.5]];portConstraint=eastwest;whiteSpace=wrap;html=1;" vertex="1" parent="h_I5UyKPZcfu8QxgUdIw-18">
          <mxGeometry y="104" width="180" height="26" as="geometry" />
        </mxCell>
        <mxCell id="h_I5UyKPZcfu8QxgUdIw-26" value="seance" style="swimlane;fontStyle=0;childLayout=stackLayout;horizontal=1;startSize=26;fillColor=none;horizontalStack=0;resizeParent=1;resizeParentMax=0;resizeLast=0;collapsible=1;marginBottom=0;whiteSpace=wrap;html=1;" vertex="1" parent="1">
          <mxGeometry x="340" y="-640" width="180" height="130" as="geometry" />
        </mxCell>
        <mxCell id="h_I5UyKPZcfu8QxgUdIw-27" value="# &lt;font face=&quot;monospace&quot;&gt;id_seance&lt;/font&gt;: int" style="text;strokeColor=none;fillColor=none;align=left;verticalAlign=top;spacingLeft=4;spacingRight=4;overflow=hidden;rotatable=0;points=[[0,0.5],[1,0.5]];portConstraint=eastwest;whiteSpace=wrap;html=1;" vertex="1" parent="h_I5UyKPZcfu8QxgUdIw-26">
          <mxGeometry y="26" width="180" height="26" as="geometry" />
        </mxCell>
        <mxCell id="h_I5UyKPZcfu8QxgUdIw-28" value="# date_et_heure:dateTime" style="text;strokeColor=none;fillColor=none;align=left;verticalAlign=top;spacingLeft=4;spacingRight=4;overflow=hidden;rotatable=0;points=[[0,0.5],[1,0.5]];portConstraint=eastwest;whiteSpace=wrap;html=1;" vertex="1" parent="h_I5UyKPZcfu8QxgUdIw-26">
          <mxGeometry y="52" width="180" height="26" as="geometry" />
        </mxCell>
        <mxCell id="h_I5UyKPZcfu8QxgUdIw-29" value="# tarifs: int" style="text;strokeColor=none;fillColor=none;align=left;verticalAlign=top;spacingLeft=4;spacingRight=4;overflow=hidden;rotatable=0;points=[[0,0.5],[1,0.5]];portConstraint=eastwest;whiteSpace=wrap;html=1;" vertex="1" parent="h_I5UyKPZcfu8QxgUdIw-26">
          <mxGeometry y="78" width="180" height="26" as="geometry" />
        </mxCell>
        <mxCell id="h_I5UyKPZcfu8QxgUdIw-30" value="# places_disponibles: int" style="text;strokeColor=none;fillColor=none;align=left;verticalAlign=top;spacingLeft=4;spacingRight=4;overflow=hidden;rotatable=0;points=[[0,0.5],[1,0.5]];portConstraint=eastwest;whiteSpace=wrap;html=1;" vertex="1" parent="h_I5UyKPZcfu8QxgUdIw-26">
          <mxGeometry y="104" width="180" height="26" as="geometry" />
        </mxCell>
        <mxCell id="h_I5UyKPZcfu8QxgUdIw-31" value="reservation" style="swimlane;fontStyle=0;childLayout=stackLayout;horizontal=1;startSize=26;fillColor=none;horizontalStack=0;resizeParent=1;resizeParentMax=0;resizeLast=0;collapsible=1;marginBottom=0;whiteSpace=wrap;html=1;" vertex="1" parent="1">
          <mxGeometry x="324" y="-840" width="180" height="78" as="geometry" />
        </mxCell>
        <mxCell id="h_I5UyKPZcfu8QxgUdIw-32" value="# &lt;font face=&quot;monospace&quot;&gt;id_reservation&lt;/font&gt;: int" style="text;strokeColor=none;fillColor=none;align=left;verticalAlign=top;spacingLeft=4;spacingRight=4;overflow=hidden;rotatable=0;points=[[0,0.5],[1,0.5]];portConstraint=eastwest;whiteSpace=wrap;html=1;" vertex="1" parent="h_I5UyKPZcfu8QxgUdIw-31">
          <mxGeometry y="26" width="180" height="26" as="geometry" />
        </mxCell>
        <mxCell id="h_I5UyKPZcfu8QxgUdIw-33" value="# Places_reservees:int" style="text;strokeColor=none;fillColor=none;align=left;verticalAlign=top;spacingLeft=4;spacingRight=4;overflow=hidden;rotatable=0;points=[[0,0.5],[1,0.5]];portConstraint=eastwest;whiteSpace=wrap;html=1;" vertex="1" parent="h_I5UyKPZcfu8QxgUdIw-31">
          <mxGeometry y="52" width="180" height="26" as="geometry" />
        </mxCell>
        <mxCell id="h_I5UyKPZcfu8QxgUdIw-36" value="historique" style="swimlane;fontStyle=0;childLayout=stackLayout;horizontal=1;startSize=26;fillColor=none;horizontalStack=0;resizeParent=1;resizeParentMax=0;resizeLast=0;collapsible=1;marginBottom=0;whiteSpace=wrap;html=1;" vertex="1" parent="1">
          <mxGeometry x="10" y="-840" width="180" height="52" as="geometry" />
        </mxCell>
        <mxCell id="h_I5UyKPZcfu8QxgUdIw-37" value="# &lt;font face=&quot;monospace&quot;&gt;id_historique&lt;/font&gt;: int" style="text;strokeColor=none;fillColor=none;align=left;verticalAlign=top;spacingLeft=4;spacingRight=4;overflow=hidden;rotatable=0;points=[[0,0.5],[1,0.5]];portConstraint=eastwest;whiteSpace=wrap;html=1;" vertex="1" parent="h_I5UyKPZcfu8QxgUdIw-36">
          <mxGeometry y="26" width="180" height="26" as="geometry" />
        </mxCell>
        <mxCell id="h_I5UyKPZcfu8QxgUdIw-39" value="" style="endArrow=none;html=1;rounded=0;entryX=0.554;entryY=0.989;entryDx=0;entryDy=0;entryPerimeter=0;" edge="1" parent="1" target="eyucza8DKZPgcl_dBAMr-4">
          <mxGeometry width="50" height="50" relative="1" as="geometry">
            <mxPoint x="720" y="-850" as="sourcePoint" />
            <mxPoint x="610" y="-780" as="targetPoint" />
          </mxGeometry>
        </mxCell>
        <mxCell id="h_I5UyKPZcfu8QxgUdIw-45" value="1" style="edgeLabel;html=1;align=center;verticalAlign=middle;resizable=0;points=[];" vertex="1" connectable="0" parent="h_I5UyKPZcfu8QxgUdIw-39">
          <mxGeometry x="0.7964" y="1" relative="1" as="geometry">
            <mxPoint x="11" as="offset" />
          </mxGeometry>
        </mxCell>
        <mxCell id="h_I5UyKPZcfu8QxgUdIw-46" value="0,*" style="edgeLabel;html=1;align=center;verticalAlign=middle;resizable=0;points=[];" vertex="1" connectable="0" parent="h_I5UyKPZcfu8QxgUdIw-39">
          <mxGeometry x="-0.8672" relative="1" as="geometry">
            <mxPoint x="10" y="-3" as="offset" />
          </mxGeometry>
        </mxCell>
        <mxCell id="h_I5UyKPZcfu8QxgUdIw-40" value="" style="endArrow=none;html=1;rounded=0;exitX=1;exitY=0.5;exitDx=0;exitDy=0;entryX=0.441;entryY=1.047;entryDx=0;entryDy=0;entryPerimeter=0;" edge="1" parent="1" source="h_I5UyKPZcfu8QxgUdIw-28" target="h_I5UyKPZcfu8QxgUdIw-17">
          <mxGeometry width="50" height="50" relative="1" as="geometry">
            <mxPoint x="610" y="-600" as="sourcePoint" />
            <mxPoint x="660" y="-650" as="targetPoint" />
            <Array as="points">
              <mxPoint x="699" y="-575" />
            </Array>
          </mxGeometry>
        </mxCell>
        <mxCell id="h_I5UyKPZcfu8QxgUdIw-47" value="1" style="edgeLabel;html=1;align=center;verticalAlign=middle;resizable=0;points=[];" vertex="1" connectable="0" parent="h_I5UyKPZcfu8QxgUdIw-40">
          <mxGeometry x="0.9462" relative="1" as="geometry">
            <mxPoint x="11" as="offset" />
          </mxGeometry>
        </mxCell>
        <mxCell id="h_I5UyKPZcfu8QxgUdIw-48" value="0,*" style="edgeLabel;html=1;align=center;verticalAlign=middle;resizable=0;points=[];" vertex="1" connectable="0" parent="h_I5UyKPZcfu8QxgUdIw-40">
          <mxGeometry x="-0.9512" y="1" relative="1" as="geometry">
            <mxPoint x="3" y="-8" as="offset" />
          </mxGeometry>
        </mxCell>
        <mxCell id="h_I5UyKPZcfu8QxgUdIw-41" value="" style="endArrow=none;html=1;rounded=0;exitX=0.478;exitY=0.935;exitDx=0;exitDy=0;exitPerimeter=0;" edge="1" parent="1" source="h_I5UyKPZcfu8QxgUdIw-30">
          <mxGeometry width="50" height="50" relative="1" as="geometry">
            <mxPoint x="610" y="-600" as="sourcePoint" />
            <mxPoint x="619" y="-440" as="targetPoint" />
            <Array as="points">
              <mxPoint x="426" y="-440" />
            </Array>
          </mxGeometry>
        </mxCell>
        <mxCell id="h_I5UyKPZcfu8QxgUdIw-49" value="0,*" style="edgeLabel;html=1;align=center;verticalAlign=middle;resizable=0;points=[];" vertex="1" connectable="0" parent="h_I5UyKPZcfu8QxgUdIw-41">
          <mxGeometry x="-0.9222" relative="1" as="geometry">
            <mxPoint x="14" as="offset" />
          </mxGeometry>
        </mxCell>
        <mxCell id="h_I5UyKPZcfu8QxgUdIw-50" value="1" style="edgeLabel;html=1;align=center;verticalAlign=middle;resizable=0;points=[];" vertex="1" connectable="0" parent="h_I5UyKPZcfu8QxgUdIw-41">
          <mxGeometry x="0.9027" relative="1" as="geometry">
            <mxPoint x="4" y="-10" as="offset" />
          </mxGeometry>
        </mxCell>
        <mxCell id="h_I5UyKPZcfu8QxgUdIw-42" value="" style="endArrow=none;html=1;rounded=0;exitX=0.5;exitY=0;exitDx=0;exitDy=0;" edge="1" parent="1" source="h_I5UyKPZcfu8QxgUdIw-26">
          <mxGeometry width="50" height="50" relative="1" as="geometry">
            <mxPoint x="610" y="-600" as="sourcePoint" />
            <mxPoint x="430" y="-762" as="targetPoint" />
          </mxGeometry>
        </mxCell>
        <mxCell id="h_I5UyKPZcfu8QxgUdIw-51" value="0,*" style="edgeLabel;html=1;align=center;verticalAlign=middle;resizable=0;points=[];" vertex="1" connectable="0" parent="h_I5UyKPZcfu8QxgUdIw-42">
          <mxGeometry x="0.895" y="2" relative="1" as="geometry">
            <mxPoint x="12" y="10" as="offset" />
          </mxGeometry>
        </mxCell>
        <mxCell id="h_I5UyKPZcfu8QxgUdIw-52" value="1" style="edgeLabel;html=1;align=center;verticalAlign=middle;resizable=0;points=[];" vertex="1" connectable="0" parent="h_I5UyKPZcfu8QxgUdIw-42">
          <mxGeometry x="-0.8595" relative="1" as="geometry">
            <mxPoint x="10" as="offset" />
          </mxGeometry>
        </mxCell>
        <mxCell id="h_I5UyKPZcfu8QxgUdIw-43" value="" style="endArrow=none;html=1;rounded=0;entryX=0.641;entryY=-0.03;entryDx=0;entryDy=0;entryPerimeter=0;" edge="1" parent="1" source="h_I5UyKPZcfu8QxgUdIw-3" target="h_I5UyKPZcfu8QxgUdIw-31">
          <mxGeometry width="50" height="50" relative="1" as="geometry">
            <mxPoint x="610" y="-600" as="sourcePoint" />
            <mxPoint x="440" y="-850" as="targetPoint" />
            <Array as="points">
              <mxPoint x="440" y="-1015" />
            </Array>
          </mxGeometry>
        </mxCell>
        <mxCell id="h_I5UyKPZcfu8QxgUdIw-53" value="0,*" style="edgeLabel;html=1;align=center;verticalAlign=middle;resizable=0;points=[];" vertex="1" connectable="0" parent="h_I5UyKPZcfu8QxgUdIw-43">
          <mxGeometry x="0.9521" y="1" relative="1" as="geometry">
            <mxPoint x="10" y="-1" as="offset" />
          </mxGeometry>
        </mxCell>
        <mxCell id="h_I5UyKPZcfu8QxgUdIw-54" value="1" style="edgeLabel;html=1;align=center;verticalAlign=middle;resizable=0;points=[];" vertex="1" connectable="0" parent="h_I5UyKPZcfu8QxgUdIw-43">
          <mxGeometry x="-0.9631" y="-1" relative="1" as="geometry">
            <mxPoint y="14" as="offset" />
          </mxGeometry>
        </mxCell>
        <mxCell id="h_I5UyKPZcfu8QxgUdIw-44" value="" style="endArrow=none;html=1;rounded=0;exitX=0.992;exitY=0.077;exitDx=0;exitDy=0;exitPerimeter=0;entryX=0;entryY=0.077;entryDx=0;entryDy=0;entryPerimeter=0;" edge="1" parent="1" source="h_I5UyKPZcfu8QxgUdIw-37" target="h_I5UyKPZcfu8QxgUdIw-32">
          <mxGeometry width="50" height="50" relative="1" as="geometry">
            <mxPoint x="610" y="-600" as="sourcePoint" />
            <mxPoint x="660" y="-650" as="targetPoint" />
          </mxGeometry>
        </mxCell>
        <mxCell id="h_I5UyKPZcfu8QxgUdIw-55" value="1" style="edgeLabel;html=1;align=center;verticalAlign=middle;resizable=0;points=[];" vertex="1" connectable="0" parent="h_I5UyKPZcfu8QxgUdIw-44">
          <mxGeometry x="-0.9172" relative="1" as="geometry">
            <mxPoint y="-12" as="offset" />
          </mxGeometry>
        </mxCell>
        <mxCell id="h_I5UyKPZcfu8QxgUdIw-56" value="1" style="edgeLabel;html=1;align=center;verticalAlign=middle;resizable=0;points=[];" vertex="1" connectable="0" parent="h_I5UyKPZcfu8QxgUdIw-44">
          <mxGeometry x="0.8671" y="-1" relative="1" as="geometry">
            <mxPoint y="-9" as="offset" />
          </mxGeometry>
        </mxCell>
      </root>
    </mxGraphModel>
  </diagram>
  <diagram id="erLTAP0t7hmGVIAiMLQx" name="Page-2">
    <mxGraphModel dx="2150" dy="948" grid="1" gridSize="10" guides="1" tooltips="1" connect="1" arrows="1" fold="1" page="1" pageScale="1" pageWidth="827" pageHeight="1169" math="0" shadow="0">
      <root>
        <mxCell id="0" />
        <mxCell id="1" parent="0" />
        <mxCell id="1dlRX42q8v59gmXsVa4K-2" value="systeme" style="shape=umlFrame;whiteSpace=wrap;html=1;pointerEvents=0;" vertex="1" parent="1">
          <mxGeometry x="120" y="20" width="840" height="1030" as="geometry" />
        </mxCell>
        <mxCell id="1dlRX42q8v59gmXsVa4K-3" value="admin" style="shape=umlActor;verticalLabelPosition=bottom;verticalAlign=top;html=1;" vertex="1" parent="1">
          <mxGeometry x="30" y="170" width="60" height="100" as="geometry" />
        </mxCell>
        <mxCell id="1dlRX42q8v59gmXsVa4K-6" value="Gérer les films" style="ellipse;whiteSpace=wrap;html=1;" vertex="1" parent="1">
          <mxGeometry x="160" y="100" width="140" height="50" as="geometry" />
        </mxCell>
        <mxCell id="1dlRX42q8v59gmXsVa4K-7" value="Ajouter" style="ellipse;whiteSpace=wrap;html=1;" vertex="1" parent="1">
          <mxGeometry x="340" y="40" width="90" height="30" as="geometry" />
        </mxCell>
        <mxCell id="1dlRX42q8v59gmXsVa4K-8" value="Modifier" style="ellipse;whiteSpace=wrap;html=1;" vertex="1" parent="1">
          <mxGeometry x="400" y="90" width="90" height="30" as="geometry" />
        </mxCell>
        <mxCell id="1dlRX42q8v59gmXsVa4K-9" value="Supprimer" style="ellipse;whiteSpace=wrap;html=1;" vertex="1" parent="1">
          <mxGeometry x="370" y="140" width="90" height="30" as="geometry" />
        </mxCell>
        <mxCell id="1dlRX42q8v59gmXsVa4K-10" value="Gérer les salles" style="ellipse;whiteSpace=wrap;html=1;" vertex="1" parent="1">
          <mxGeometry x="320" y="205" width="140" height="50" as="geometry" />
        </mxCell>
        <mxCell id="1dlRX42q8v59gmXsVa4K-11" value="Ajouter" style="ellipse;whiteSpace=wrap;html=1;" vertex="1" parent="1">
          <mxGeometry x="540" y="170" width="90" height="30" as="geometry" />
        </mxCell>
        <mxCell id="1dlRX42q8v59gmXsVa4K-12" value="Modifier" style="ellipse;whiteSpace=wrap;html=1;" vertex="1" parent="1">
          <mxGeometry x="600" y="220" width="90" height="30" as="geometry" />
        </mxCell>
        <mxCell id="1dlRX42q8v59gmXsVa4K-13" value="Supprimer" style="ellipse;whiteSpace=wrap;html=1;" vertex="1" parent="1">
          <mxGeometry x="530" y="260" width="90" height="30" as="geometry" />
        </mxCell>
        <mxCell id="1dlRX42q8v59gmXsVa4K-14" value="Gérer les séances" style="ellipse;whiteSpace=wrap;html=1;" vertex="1" parent="1">
          <mxGeometry x="180" y="330" width="140" height="50" as="geometry" />
        </mxCell>
        <mxCell id="1dlRX42q8v59gmXsVa4K-21" value="Ajouter" style="ellipse;whiteSpace=wrap;html=1;" vertex="1" parent="1">
          <mxGeometry x="330" y="290" width="90" height="30" as="geometry" />
        </mxCell>
        <mxCell id="1dlRX42q8v59gmXsVa4K-22" value="Modifier" style="ellipse;whiteSpace=wrap;html=1;" vertex="1" parent="1">
          <mxGeometry x="410" y="350" width="90" height="30" as="geometry" />
        </mxCell>
        <mxCell id="1dlRX42q8v59gmXsVa4K-23" value="Supprimer" style="ellipse;whiteSpace=wrap;html=1;" vertex="1" parent="1">
          <mxGeometry x="300" y="400" width="90" height="30" as="geometry" />
        </mxCell>
        <mxCell id="1dlRX42q8v59gmXsVa4K-24" value="Créer d&#39;autres administrateurs" style="ellipse;whiteSpace=wrap;html=1;" vertex="1" parent="1">
          <mxGeometry x="320" y="470" width="140" height="50" as="geometry" />
        </mxCell>
        <mxCell id="1dlRX42q8v59gmXsVa4K-25" value="Ajouter" style="ellipse;whiteSpace=wrap;html=1;" vertex="1" parent="1">
          <mxGeometry x="540" y="430" width="90" height="30" as="geometry" />
        </mxCell>
        <mxCell id="1dlRX42q8v59gmXsVa4K-26" value="Modifier" style="ellipse;whiteSpace=wrap;html=1;" vertex="1" parent="1">
          <mxGeometry x="600" y="480" width="90" height="30" as="geometry" />
        </mxCell>
        <mxCell id="1dlRX42q8v59gmXsVa4K-27" value="Supprimer" style="ellipse;whiteSpace=wrap;html=1;" vertex="1" parent="1">
          <mxGeometry x="530" y="520" width="90" height="30" as="geometry" />
        </mxCell>
        <mxCell id="1dlRX42q8v59gmXsVa4K-28" value="Extends" style="endArrow=block;endSize=16;endFill=0;html=1;rounded=0;entryX=1;entryY=0;entryDx=0;entryDy=0;exitX=0;exitY=0.5;exitDx=0;exitDy=0;" edge="1" parent="1" source="1dlRX42q8v59gmXsVa4K-7" target="1dlRX42q8v59gmXsVa4K-6">
          <mxGeometry width="160" relative="1" as="geometry">
            <mxPoint x="250" y="490" as="sourcePoint" />
            <mxPoint x="410" y="490" as="targetPoint" />
            <Array as="points">
              <mxPoint x="300" y="66" />
            </Array>
          </mxGeometry>
        </mxCell>
        <mxCell id="1dlRX42q8v59gmXsVa4K-29" value="Extends" style="endArrow=block;endSize=16;endFill=0;html=1;rounded=0;entryX=1;entryY=0.5;entryDx=0;entryDy=0;exitX=0;exitY=0.5;exitDx=0;exitDy=0;" edge="1" parent="1" source="1dlRX42q8v59gmXsVa4K-8" target="1dlRX42q8v59gmXsVa4K-6">
          <mxGeometry width="160" relative="1" as="geometry">
            <mxPoint x="300" y="120" as="sourcePoint" />
            <mxPoint x="363" y="76" as="targetPoint" />
            <Array as="points">
              <mxPoint x="340" y="100" />
            </Array>
          </mxGeometry>
        </mxCell>
        <mxCell id="1dlRX42q8v59gmXsVa4K-30" value="Extends" style="endArrow=block;endSize=16;endFill=0;html=1;rounded=0;entryX=0.802;entryY=0.97;entryDx=0;entryDy=0;exitX=0;exitY=0.5;exitDx=0;exitDy=0;entryPerimeter=0;" edge="1" parent="1" source="1dlRX42q8v59gmXsVa4K-9" target="1dlRX42q8v59gmXsVa4K-6">
          <mxGeometry width="160" relative="1" as="geometry">
            <mxPoint x="310" y="130" as="sourcePoint" />
            <mxPoint x="410" y="115" as="targetPoint" />
            <Array as="points">
              <mxPoint x="300" y="160" />
            </Array>
          </mxGeometry>
        </mxCell>
        <mxCell id="1dlRX42q8v59gmXsVa4K-32" value="Extends" style="endArrow=block;endSize=16;endFill=0;html=1;rounded=0;entryX=0.761;entryY=0.97;entryDx=0;entryDy=0;exitX=0;exitY=0.5;exitDx=0;exitDy=0;entryPerimeter=0;" edge="1" parent="1" source="1dlRX42q8v59gmXsVa4K-13" target="1dlRX42q8v59gmXsVa4K-10">
          <mxGeometry width="160" relative="1" as="geometry">
            <mxPoint x="261" y="160" as="sourcePoint" />
            <mxPoint x="380" y="165" as="targetPoint" />
            <Array as="points">
              <mxPoint x="440" y="275" />
            </Array>
          </mxGeometry>
        </mxCell>
        <mxCell id="1dlRX42q8v59gmXsVa4K-33" value="Extends" style="endArrow=block;endSize=16;endFill=0;html=1;rounded=0;exitX=0;exitY=0.5;exitDx=0;exitDy=0;" edge="1" parent="1" source="1dlRX42q8v59gmXsVa4K-12" target="1dlRX42q8v59gmXsVa4K-10">
          <mxGeometry width="160" relative="1" as="geometry">
            <mxPoint x="392" y="266" as="sourcePoint" />
            <mxPoint x="540" y="285" as="targetPoint" />
            <Array as="points">
              <mxPoint x="490" y="235" />
            </Array>
          </mxGeometry>
        </mxCell>
        <mxCell id="1dlRX42q8v59gmXsVa4K-34" value="Extends" style="endArrow=block;endSize=16;endFill=0;html=1;rounded=0;entryX=0.903;entryY=0.266;entryDx=0;entryDy=0;exitX=0;exitY=0.5;exitDx=0;exitDy=0;entryPerimeter=0;" edge="1" parent="1" source="1dlRX42q8v59gmXsVa4K-11" target="1dlRX42q8v59gmXsVa4K-10">
          <mxGeometry width="160" relative="1" as="geometry">
            <mxPoint x="470" y="240" as="sourcePoint" />
            <mxPoint x="610" y="245" as="targetPoint" />
            <Array as="points">
              <mxPoint x="490" y="190" />
            </Array>
          </mxGeometry>
        </mxCell>
        <mxCell id="1dlRX42q8v59gmXsVa4K-35" value="Extends" style="endArrow=block;endSize=16;endFill=0;html=1;rounded=0;entryX=0.5;entryY=0;entryDx=0;entryDy=0;" edge="1" parent="1" source="1dlRX42q8v59gmXsVa4K-21" target="1dlRX42q8v59gmXsVa4K-14">
          <mxGeometry width="160" relative="1" as="geometry">
            <mxPoint x="392" y="266" as="sourcePoint" />
            <mxPoint x="540" y="285" as="targetPoint" />
            <Array as="points">
              <mxPoint x="270" y="300" />
            </Array>
          </mxGeometry>
        </mxCell>
        <mxCell id="1dlRX42q8v59gmXsVa4K-36" value="Extends" style="endArrow=block;endSize=16;endFill=0;html=1;rounded=0;entryX=1;entryY=0.5;entryDx=0;entryDy=0;exitX=0;exitY=0.5;exitDx=0;exitDy=0;" edge="1" parent="1" source="1dlRX42q8v59gmXsVa4K-22" target="1dlRX42q8v59gmXsVa4K-14">
          <mxGeometry width="160" relative="1" as="geometry">
            <mxPoint x="222" y="344" as="sourcePoint" />
            <mxPoint x="340" y="315" as="targetPoint" />
            <Array as="points">
              <mxPoint x="360" y="370" />
            </Array>
          </mxGeometry>
        </mxCell>
        <mxCell id="1dlRX42q8v59gmXsVa4K-37" value="Extends" style="endArrow=block;endSize=16;endFill=0;html=1;rounded=0;entryX=0.44;entryY=1.042;entryDx=0;entryDy=0;exitX=0.069;exitY=0.599;exitDx=0;exitDy=0;entryPerimeter=0;exitPerimeter=0;" edge="1" parent="1" source="1dlRX42q8v59gmXsVa4K-23" target="1dlRX42q8v59gmXsVa4K-14">
          <mxGeometry x="-0.0024" width="160" relative="1" as="geometry">
            <mxPoint x="332" y="372" as="sourcePoint" />
            <mxPoint x="420" y="375" as="targetPoint" />
            <Array as="points">
              <mxPoint x="260" y="400" />
            </Array>
            <mxPoint as="offset" />
          </mxGeometry>
        </mxCell>
        <mxCell id="1dlRX42q8v59gmXsVa4K-38" value="Extends" style="endArrow=block;endSize=16;endFill=0;html=1;rounded=0;exitX=0;exitY=0.5;exitDx=0;exitDy=0;entryX=0.615;entryY=-0.004;entryDx=0;entryDy=0;entryPerimeter=0;" edge="1" parent="1" source="1dlRX42q8v59gmXsVa4K-25" target="1dlRX42q8v59gmXsVa4K-24">
          <mxGeometry x="-0.0024" width="160" relative="1" as="geometry">
            <mxPoint x="225" y="388" as="sourcePoint" />
            <mxPoint x="310" y="420" as="targetPoint" />
            <Array as="points">
              <mxPoint x="450" y="450" />
            </Array>
            <mxPoint as="offset" />
          </mxGeometry>
        </mxCell>
        <mxCell id="1dlRX42q8v59gmXsVa4K-39" value="Extends" style="endArrow=block;endSize=16;endFill=0;html=1;rounded=0;exitX=0;exitY=0.5;exitDx=0;exitDy=0;entryX=0.958;entryY=0.713;entryDx=0;entryDy=0;entryPerimeter=0;" edge="1" parent="1" source="1dlRX42q8v59gmXsVa4K-26" target="1dlRX42q8v59gmXsVa4K-24">
          <mxGeometry x="-0.0024" width="160" relative="1" as="geometry">
            <mxPoint x="400" y="480" as="sourcePoint" />
            <mxPoint x="550" y="457" as="targetPoint" />
            <Array as="points">
              <mxPoint x="510" y="490" />
            </Array>
            <mxPoint as="offset" />
          </mxGeometry>
        </mxCell>
        <mxCell id="1dlRX42q8v59gmXsVa4K-40" value="Extends" style="endArrow=block;endSize=16;endFill=0;html=1;rounded=0;exitX=0;exitY=0.5;exitDx=0;exitDy=0;entryX=1;entryY=1;entryDx=0;entryDy=0;" edge="1" parent="1" source="1dlRX42q8v59gmXsVa4K-27" target="1dlRX42q8v59gmXsVa4K-24">
          <mxGeometry x="-0.0024" width="160" relative="1" as="geometry">
            <mxPoint x="470" y="505" as="sourcePoint" />
            <mxPoint x="610" y="505" as="targetPoint" />
            <Array as="points">
              <mxPoint x="480" y="540" />
            </Array>
            <mxPoint as="offset" />
          </mxGeometry>
        </mxCell>
        <mxCell id="1dlRX42q8v59gmXsVa4K-41" value="" style="endArrow=open;endFill=1;endSize=12;html=1;rounded=0;entryX=0;entryY=0.5;entryDx=0;entryDy=0;exitX=0.798;exitY=0.192;exitDx=0;exitDy=0;exitPerimeter=0;" edge="1" parent="1" source="1dlRX42q8v59gmXsVa4K-3" target="1dlRX42q8v59gmXsVa4K-6">
          <mxGeometry width="160" relative="1" as="geometry">
            <mxPoint x="80" y="290" as="sourcePoint" />
            <mxPoint x="400" y="440" as="targetPoint" />
          </mxGeometry>
        </mxCell>
        <mxCell id="1dlRX42q8v59gmXsVa4K-42" value="" style="endArrow=open;endFill=1;endSize=12;html=1;rounded=0;entryX=0;entryY=0.5;entryDx=0;entryDy=0;exitX=0.883;exitY=0.366;exitDx=0;exitDy=0;exitPerimeter=0;" edge="1" parent="1" source="1dlRX42q8v59gmXsVa4K-3" target="1dlRX42q8v59gmXsVa4K-10">
          <mxGeometry width="160" relative="1" as="geometry">
            <mxPoint x="100" y="202" as="sourcePoint" />
            <mxPoint x="170" y="135" as="targetPoint" />
          </mxGeometry>
        </mxCell>
        <mxCell id="1dlRX42q8v59gmXsVa4K-43" value="" style="endArrow=open;endFill=1;endSize=12;html=1;rounded=0;entryX=0.102;entryY=0.209;entryDx=0;entryDy=0;entryPerimeter=0;" edge="1" parent="1" source="1dlRX42q8v59gmXsVa4K-3" target="1dlRX42q8v59gmXsVa4K-14">
          <mxGeometry width="160" relative="1" as="geometry">
            <mxPoint x="110" y="212" as="sourcePoint" />
            <mxPoint x="330" y="240" as="targetPoint" />
          </mxGeometry>
        </mxCell>
        <mxCell id="1dlRX42q8v59gmXsVa4K-44" value="" style="endArrow=open;endFill=1;endSize=12;html=1;rounded=0;entryX=0;entryY=0.5;entryDx=0;entryDy=0;exitX=0.738;exitY=0.832;exitDx=0;exitDy=0;exitPerimeter=0;" edge="1" parent="1" source="1dlRX42q8v59gmXsVa4K-3" target="1dlRX42q8v59gmXsVa4K-24">
          <mxGeometry width="160" relative="1" as="geometry">
            <mxPoint x="120" y="222" as="sourcePoint" />
            <mxPoint x="204" y="350" as="targetPoint" />
            <Array as="points">
              <mxPoint x="190" y="400" />
            </Array>
          </mxGeometry>
        </mxCell>
        <mxCell id="1dlRX42q8v59gmXsVa4K-45" value="client" style="shape=umlActor;verticalLabelPosition=bottom;verticalAlign=top;html=1;" vertex="1" parent="1">
          <mxGeometry x="30" y="740" width="60" height="100" as="geometry" />
        </mxCell>
        <mxCell id="1dlRX42q8v59gmXsVa4K-47" value="Voir les films et les séances disponibles" style="ellipse;whiteSpace=wrap;html=1;" vertex="1" parent="1">
          <mxGeometry x="275" y="585" width="140" height="50" as="geometry" />
        </mxCell>
        <mxCell id="1dlRX42q8v59gmXsVa4K-48" value="" style="endArrow=open;endFill=1;endSize=12;html=1;rounded=0;exitX=0.654;exitY=0.218;exitDx=0;exitDy=0;exitPerimeter=0;entryX=0.05;entryY=0.747;entryDx=0;entryDy=0;entryPerimeter=0;" edge="1" parent="1" source="1dlRX42q8v59gmXsVa4K-45" target="1dlRX42q8v59gmXsVa4K-47">
          <mxGeometry width="160" relative="1" as="geometry">
            <mxPoint x="210" y="660" as="sourcePoint" />
            <mxPoint x="370" y="660" as="targetPoint" />
          </mxGeometry>
        </mxCell>
        <mxCell id="1dlRX42q8v59gmXsVa4K-49" value="" style="endArrow=open;endFill=1;endSize=12;html=1;rounded=0;entryX=0;entryY=0;entryDx=0;entryDy=0;" edge="1" parent="1" source="1dlRX42q8v59gmXsVa4K-3" target="1dlRX42q8v59gmXsVa4K-47">
          <mxGeometry width="160" relative="1" as="geometry">
            <mxPoint x="79" y="772" as="sourcePoint" />
            <mxPoint x="297" y="687" as="targetPoint" />
            <Array as="points">
              <mxPoint x="180" y="460" />
            </Array>
          </mxGeometry>
        </mxCell>
        <mxCell id="1dlRX42q8v59gmXsVa4K-50" value="Créer un compte" style="ellipse;whiteSpace=wrap;html=1;" vertex="1" parent="1">
          <mxGeometry x="375" y="710" width="140" height="50" as="geometry" />
        </mxCell>
        <mxCell id="1dlRX42q8v59gmXsVa4K-51" value="" style="endArrow=open;endFill=1;endSize=12;html=1;rounded=0;exitX=0.654;exitY=0.218;exitDx=0;exitDy=0;exitPerimeter=0;entryX=0;entryY=0.5;entryDx=0;entryDy=0;" edge="1" parent="1" target="1dlRX42q8v59gmXsVa4K-50">
          <mxGeometry width="160" relative="1" as="geometry">
            <mxPoint x="79" y="772" as="sourcePoint" />
            <mxPoint x="292" y="632" as="targetPoint" />
          </mxGeometry>
        </mxCell>
        <mxCell id="1dlRX42q8v59gmXsVa4K-52" value="Réserver une place" style="ellipse;whiteSpace=wrap;html=1;" vertex="1" parent="1">
          <mxGeometry x="230" y="820" width="140" height="50" as="geometry" />
        </mxCell>
        <mxCell id="1dlRX42q8v59gmXsVa4K-53" value="" style="endArrow=open;endFill=1;endSize=12;html=1;rounded=0;exitX=0.654;exitY=0.218;exitDx=0;exitDy=0;exitPerimeter=0;entryX=0;entryY=0.5;entryDx=0;entryDy=0;" edge="1" parent="1" target="1dlRX42q8v59gmXsVa4K-52">
          <mxGeometry width="160" relative="1" as="geometry">
            <mxPoint x="89" y="782" as="sourcePoint" />
            <mxPoint x="385" y="745" as="targetPoint" />
          </mxGeometry>
        </mxCell>
        <mxCell id="1dlRX42q8v59gmXsVa4K-54" value="Connexion avec authentification JWT" style="ellipse;whiteSpace=wrap;html=1;" vertex="1" parent="1">
          <mxGeometry x="800" y="470" width="140" height="50" as="geometry" />
        </mxCell>
        <mxCell id="1dlRX42q8v59gmXsVa4K-55" value="include" style="endArrow=block;endSize=16;endFill=0;html=1;rounded=0;entryX=0.388;entryY=0.054;entryDx=0;entryDy=0;entryPerimeter=0;exitX=0.5;exitY=0;exitDx=0;exitDy=0;" edge="1" parent="1" source="1dlRX42q8v59gmXsVa4K-6" target="1dlRX42q8v59gmXsVa4K-54">
          <mxGeometry width="160" relative="1" as="geometry">
            <mxPoint x="280" y="420" as="sourcePoint" />
            <mxPoint x="440" y="420" as="targetPoint" />
            <Array as="points">
              <mxPoint x="230" y="30" />
              <mxPoint x="860" y="30" />
            </Array>
          </mxGeometry>
        </mxCell>
        <mxCell id="1dlRX42q8v59gmXsVa4K-56" value="include" style="endArrow=block;endSize=16;endFill=0;html=1;rounded=0;exitX=0.714;exitY=0.135;exitDx=0;exitDy=0;exitPerimeter=0;" edge="1" parent="1" source="1dlRX42q8v59gmXsVa4K-10">
          <mxGeometry width="160" relative="1" as="geometry">
            <mxPoint x="240" y="110" as="sourcePoint" />
            <mxPoint x="850" y="470" as="targetPoint" />
            <Array as="points">
              <mxPoint x="510" y="150" />
              <mxPoint x="720" y="170" />
            </Array>
          </mxGeometry>
        </mxCell>
        <mxCell id="1dlRX42q8v59gmXsVa4K-57" value="include" style="endArrow=block;endSize=16;endFill=0;html=1;rounded=0;exitX=0.949;exitY=0.269;exitDx=0;exitDy=0;exitPerimeter=0;entryX=0;entryY=0;entryDx=0;entryDy=0;" edge="1" parent="1" source="1dlRX42q8v59gmXsVa4K-14" target="1dlRX42q8v59gmXsVa4K-54">
          <mxGeometry width="160" relative="1" as="geometry">
            <mxPoint x="430" y="222" as="sourcePoint" />
            <mxPoint x="860" y="480" as="targetPoint" />
            <Array as="points">
              <mxPoint x="560" y="320" />
              <mxPoint x="660" y="330" />
            </Array>
          </mxGeometry>
        </mxCell>
        <mxCell id="1dlRX42q8v59gmXsVa4K-58" value="include" style="endArrow=block;endSize=16;endFill=0;html=1;rounded=0;exitX=0.353;exitY=0.029;exitDx=0;exitDy=0;exitPerimeter=0;entryX=0;entryY=0.5;entryDx=0;entryDy=0;" edge="1" parent="1" source="1dlRX42q8v59gmXsVa4K-24" target="1dlRX42q8v59gmXsVa4K-54">
          <mxGeometry width="160" relative="1" as="geometry">
            <mxPoint x="323" y="353" as="sourcePoint" />
            <mxPoint x="830" y="487" as="targetPoint" />
            <Array as="points">
              <mxPoint x="580" y="390" />
              <mxPoint x="650" y="390" />
            </Array>
          </mxGeometry>
        </mxCell>
        <mxCell id="1dlRX42q8v59gmXsVa4K-59" value="include" style="endArrow=block;endSize=16;endFill=0;html=1;rounded=0;exitX=0.956;exitY=0.289;exitDx=0;exitDy=0;exitPerimeter=0;entryX=0;entryY=0.5;entryDx=0;entryDy=0;" edge="1" parent="1" source="1dlRX42q8v59gmXsVa4K-47">
          <mxGeometry width="160" relative="1" as="geometry">
            <mxPoint x="379" y="481" as="sourcePoint" />
            <mxPoint x="810" y="505" as="targetPoint" />
            <Array as="points">
              <mxPoint x="610" y="580" />
              <mxPoint x="700" y="560" />
            </Array>
          </mxGeometry>
        </mxCell>
        <mxCell id="1dlRX42q8v59gmXsVa4K-60" value="include" style="endArrow=block;endSize=16;endFill=0;html=1;rounded=0;exitX=1;exitY=0;exitDx=0;exitDy=0;entryX=0.274;entryY=1.063;entryDx=0;entryDy=0;entryPerimeter=0;" edge="1" parent="1" source="1dlRX42q8v59gmXsVa4K-50" target="1dlRX42q8v59gmXsVa4K-54">
          <mxGeometry width="160" relative="1" as="geometry">
            <mxPoint x="419" y="609" as="sourcePoint" />
            <mxPoint x="820" y="515" as="targetPoint" />
            <Array as="points">
              <mxPoint x="660" y="650" />
              <mxPoint x="740" y="600" />
            </Array>
          </mxGeometry>
        </mxCell>
        <mxCell id="1dlRX42q8v59gmXsVa4K-61" value="include" style="endArrow=block;endSize=16;endFill=0;html=1;rounded=0;exitX=1;exitY=0.5;exitDx=0;exitDy=0;entryX=0.643;entryY=0.94;entryDx=0;entryDy=0;entryPerimeter=0;" edge="1" parent="1" source="1dlRX42q8v59gmXsVa4K-52" target="1dlRX42q8v59gmXsVa4K-54">
          <mxGeometry width="160" relative="1" as="geometry">
            <mxPoint x="505" y="727" as="sourcePoint" />
            <mxPoint x="830" y="525" as="targetPoint" />
            <Array as="points">
              <mxPoint x="700" y="730" />
              <mxPoint x="810" y="690" />
            </Array>
          </mxGeometry>
        </mxCell>
      </root>
    </mxGraphModel>
  </diagram>
</mxfile>
